<?xml version="1.0" encoding="UTF-8"?>
<svg version="1.1" xmlns="http://www.w3.org/2000/svg" width="1536" height="1024">
<path d="M0 0 C506.88 0 1013.76 0 1536 0 C1536 337.92 1536 675.84 1536 1024 C1029.12 1024 522.24 1024 0 1024 C0 686.08 0 348.16 0 0 Z " fill="#FEE5A5" transform="translate(0,0)"/>
<path d="M0 0 C12.57808314 -0.09261407 25.15608539 -0.1637215 37.73443985 -0.20724869 C43.57487263 -0.22813787 49.41507242 -0.25648023 55.25537109 -0.30175781 C60.88988287 -0.34516745 66.5241703 -0.36912708 72.15883636 -0.37950897 C74.31028527 -0.38690907 76.46172167 -0.40135947 78.61307526 -0.42292023 C81.62285553 -0.45188886 84.63170468 -0.45595868 87.64160156 -0.45410156 C88.98056236 -0.47567322 88.98056236 -0.47567322 90.34657288 -0.49768066 C94.12000057 -0.47242874 96.33066367 -0.42900047 99.55552673 1.63792419 C101.42590058 4.69645419 101.48879801 6.66655518 101.4699707 10.24731445 C101.47289627 11.5252034 101.47582184 12.80309235 101.47883606 14.1197052 C101.46161348 15.53423626 101.44391156 16.94876154 101.42578125 18.36328125 C101.4208281 19.86573342 101.41754839 21.36819191 101.41581726 22.87065125 C101.40617301 26.88270521 101.37184447 30.89420478 101.33294678 34.90606689 C101.30727922 37.92694734 101.29742603 40.94773582 101.28986597 43.96870804 C101.24603965 59.65529972 101.06166847 75.339278 100.76416016 91.02307129 C100.02116518 130.72503024 99.85153836 170.41661205 99.83266214 210.12483079 C99.82670442 222.64144944 99.8101961 235.15803373 99.78999329 247.67463684 C99.78683028 249.66921191 99.78367498 251.663787 99.78052729 253.65836209 C99.77576522 256.67406771 99.77100169 259.68977332 99.76621684 262.7054789 C99.74848709 273.92059412 99.73214563 285.13571102 99.71704102 296.35083008 C99.71566514 297.36984125 99.71428927 298.38885243 99.71287171 299.43874273 C99.6907244 316.1189053 99.68012224 332.79906018 99.67267027 349.4792349 C99.66461133 366.7252719 99.64139914 383.97124402 99.6047166 401.21724397 C99.58274066 411.80163145 99.57301159 422.38588559 99.57921693 432.97029475 C99.58238114 440.17800088 99.57113089 447.38559177 99.54832252 454.59326222 C99.53562557 458.74809957 99.52952203 462.90268011 99.54073906 467.05752754 C99.55086299 470.8555615 99.54275281 474.65309512 99.5198761 478.45106963 C99.5124772 480.48013421 99.5248478 482.50924083 99.53783625 484.53827733 C99.52700536 485.73702813 99.51617447 486.93577894 99.50501537 488.17085552 C99.50355016 489.72584665 99.50355016 489.72584665 99.50205535 491.31225175 C98.86182711 494.73970718 97.76032894 495.92124333 95 498 C91.94034399 498.3996636 89.23989506 498.55727566 86.17993164 498.53344727 C85.29005051 498.54206284 84.40016937 498.55067841 83.48332214 498.55955505 C80.54197088 498.58225609 77.60156922 498.5754683 74.66015625 498.56640625 C72.61518571 498.57164023 70.5702176 498.57791588 68.5252533 498.58518982 C64.23880659 498.59560186 59.95269168 498.59102129 55.66625977 498.57641602 C50.1735653 498.5592326 44.6819173 498.58271412 39.18933964 498.61790562 C34.96594817 498.63986885 30.74280748 498.63844062 26.51937675 498.6301403 C24.49437755 498.62932009 22.46936005 498.63619682 20.44441414 498.65091133 C17.61211013 498.66833595 14.78169112 498.65383197 11.94946289 498.63110352 C11.11345551 498.64279572 10.27744812 498.65448792 9.41610718 498.66653442 C5.11387118 498.5963065 3.47859882 498.37542712 -0.02386475 495.62799072 C-2.30703462 492.59168577 -2.59304089 491.23086383 -2.48828125 487.48046875 C-2.47216797 486.45888672 -2.45605469 485.43730469 -2.43945312 484.38476562 C-2.37661133 482.80211914 -2.37661133 482.80211914 -2.3125 481.1875 C-2.28994141 480.11306641 -2.26738281 479.03863281 -2.24414062 477.93164062 C-2.18535598 475.2863315 -2.10323957 472.64388587 -2 470 C-5.38962672 471.91179638 -8.09591919 473.912885 -10.875 476.625 C-32.0259181 495.70985159 -62.82069351 505.67251927 -90.8125 505.4375 C-91.55946136 505.43512329 -92.30642273 505.43274658 -93.07601929 505.43029785 C-104.22246524 505.37480208 -114.36062928 504.54239918 -125 501 C-126.75183594 500.51466797 -126.75183594 500.51466797 -128.5390625 500.01953125 C-134.56654041 498.32213804 -140.07209526 496.21733383 -145.5859375 493.24609375 C-148.12143152 491.89463834 -148.12143152 491.89463834 -151.3671875 490.60546875 C-155.04910772 488.97829755 -158.38933658 487.06812918 -161.75 484.875 C-162.35779297 484.47885498 -162.96558594 484.08270996 -163.59179688 483.67456055 C-190.98509615 465.52614047 -211.21303033 438.50745091 -223 408 C-223.27972656 407.30390625 -223.55945313 406.6078125 -223.84765625 405.890625 C-224.61027897 403.94031115 -225.31173888 401.97788171 -226 400 C-226.37898438 398.92621094 -226.75796875 397.85242188 -227.1484375 396.74609375 C-235.22395316 373.27815582 -238.53546711 350.23196032 -238.33618164 325.44897461 C-238.31243291 322.30361426 -238.31567553 319.15910048 -238.32226562 316.01367188 C-238.29857963 299.05805839 -237.41937832 282.44501734 -233 266 C-232.53766815 264.22137815 -232.07543762 262.44272996 -231.61328125 260.6640625 C-231.09790979 258.71313006 -230.58097216 256.7626107 -230.0625 254.8125 C-229.82176758 253.89750732 -229.58103516 252.98251465 -229.33300781 252.03979492 C-227.11125749 243.85870833 -224.36579889 236.27633149 -220 229 C-219.49237695 227.60692084 -218.99371524 226.21056865 -218.5 224.8125 C-205.07142805 190.47225876 -173.12643999 160.83249679 -140 146 C-127.03044233 140.41293962 -114.29374697 137.66331512 -100.26977539 136.27783203 C-97.96924961 136.03146603 -97.96924961 136.03146603 -95.61816406 135.4831543 C-90.05674107 134.45685291 -84.32867986 134.70899005 -78.6875 134.6875 C-78.01181976 134.68454926 -77.33613953 134.68159851 -76.63998413 134.67855835 C-66.11699817 134.66807962 -56.98659537 135.65083692 -47 139 C-45.02319405 139.50925331 -43.04416564 140.00999798 -41.0625 140.5 C-33.38507762 142.64967827 -26.53009339 146.1844629 -19.5 149.875 C-18.89510742 150.19041748 -18.29021484 150.50583496 -17.66699219 150.83081055 C-14.0651052 152.75474295 -10.64987997 154.85886677 -7.25976562 157.13720703 C-6.45913696 157.67427277 -5.6585083 158.2113385 -4.83361816 158.76467896 C-4.22852417 159.1723349 -3.62343018 159.57999084 -3 160 C-3.00138269 158.79679202 -3.00138269 158.79679202 -3.00279331 157.56927681 C-3.02485341 138.07418749 -3.04141394 118.57910066 -3.05181217 99.08400154 C-3.056974 89.65641965 -3.06401457 80.22884608 -3.07543945 70.80126953 C-3.08538972 62.58661896 -3.09185425 54.37197442 -3.09408849 46.157318 C-3.09539502 41.80554578 -3.0984772 37.45379079 -3.10573006 33.10202408 C-3.11249566 29.00962312 -3.11461585 24.91724657 -3.11310768 20.82484055 C-3.11338376 19.31955076 -3.1153857 17.81426019 -3.11920547 16.30897522 C-3.12415106 14.26028019 -3.12239559 12.21157219 -3.12025452 10.16287231 C-3.12163721 8.44004123 -3.12163721 8.44004123 -3.12304783 6.68240547 C-3 4 -3 4 -2 2 C-1.34 2 -0.68 2 0 2 C0 1.34 0 0.68 0 0 Z " fill="#000000" transform="translate(675,245)"/>
<path d="M0 0 C0.94914276 -0.00845947 1.89828552 -0.01691895 2.87619019 -0.02563477 C3.91575363 -0.01956207 4.95531708 -0.01348938 6.02638245 -0.00723267 C7.12254883 -0.01248962 8.21871521 -0.01774658 9.34809875 -0.02316284 C12.98131956 -0.0363955 16.61410424 -0.0276123 20.24732971 -0.01748657 C22.76694829 -0.01950651 25.28656629 -0.02241727 27.80618286 -0.02618408 C33.09139603 -0.030612 38.37645217 -0.02444699 43.66163635 -0.01016235 C49.76982633 0.00615616 55.87771577 0.00088232 61.98589844 -0.01564157 C67.86294965 -0.03090331 73.73990758 -0.02927818 79.61697578 -0.02049637 C82.11727503 -0.01849246 84.61758192 -0.02096029 87.11787224 -0.02793503 C90.61102078 -0.03553961 94.10358966 -0.02395805 97.59669495 -0.00723267 C98.63423416 -0.01330536 99.67177338 -0.01937805 100.74075317 -0.02563477 C101.69271576 -0.01717529 102.64467834 -0.00871582 103.62548828 0 C104.45120551 0.00113108 105.27692274 0.00226215 106.12766171 0.00342751 C109.00110718 0.48586342 110.34187357 1.29990532 112.37623596 3.38095093 C112.89479733 5.57181072 112.89479733 5.57181072 112.92114258 8.19386292 C112.94065664 9.2013452 112.96017071 10.20882748 112.98027611 11.24683952 C112.98131151 12.36770517 112.98234692 13.48857082 112.9834137 14.6434021 C112.99982721 15.84812731 113.01624073 17.05285252 113.03315163 18.29408455 C113.07436159 21.70859289 113.09677004 25.12230618 113.11092687 28.5369761 C113.12640921 31.52329571 113.15654463 34.50940353 113.18630093 37.4956097 C113.30068851 49.12386852 113.34270548 60.75222078 113.37623596 72.38095093 C113.38090236 73.94159948 113.38090236 73.94159948 113.38566303 75.53377628 C113.48589383 109.69156767 113.47840809 143.8492603 113.44826639 178.00714862 C113.43683651 191.17159833 113.43152724 204.33604875 113.42655957 217.50050223 C113.41625758 244.46065729 113.39880501 271.42080353 113.37623596 298.38095093 C114.03623596 298.38095093 114.69623596 298.38095093 115.37623596 298.38095093 C115.77455627 297.52823608 115.77455627 297.52823608 116.18092346 296.65829468 C121.14486862 287.20084361 128.90293263 278.74973414 135.3752594 270.29330444 C139.6672471 264.67020028 143.85443885 258.99270837 147.92823792 253.21029663 C151.46693247 248.20406482 155.19350066 243.360113 158.95045471 238.51766968 C162.39223031 234.06719334 165.75852447 229.56164497 169.1252594 225.05429077 C171.02107927 222.51839121 172.92143189 219.98589745 174.82154846 217.45321655 C176.37404819 215.38386705 177.92592591 213.31405204 179.47779846 211.24423218 C181.19959706 208.94831401 182.92351488 206.65406673 184.64967346 204.36141968 C188.08106197 199.8011171 191.4924923 195.22853459 194.86842346 190.62704468 C195.48797913 189.78311157 196.10753479 188.93917847 196.74586487 188.06967163 C197.97127339 186.39893482 199.19499125 184.72695626 200.41676331 183.05355835 C209.32496179 170.90658801 209.32496179 170.90658801 212.37623596 169.38095093 C213.95573048 169.28551589 215.5392229 169.25299941 217.12159729 169.2515564 C218.1189238 169.24845963 219.11625031 169.24536285 220.14379883 169.24217224 C221.23757339 169.24414108 222.33134796 169.24610992 223.45826721 169.24813843 C224.60001907 169.2466832 225.74177094 169.24522797 226.91812134 169.24372864 C230.67502544 169.24146639 234.43184076 169.24779241 238.18873596 169.25595093 C239.46178589 169.25783417 240.73483582 169.25971741 242.04646301 169.26165771 C258.80511538 169.29076586 275.56516328 169.35945382 292.32164001 169.64541626 C294.27048061 169.67737012 296.21940583 169.70453147 298.16838074 169.72683716 C300.86056579 169.75961809 303.55167438 169.8114642 306.24342346 169.86923218 C307.03136795 169.87563217 307.81931244 169.88203217 308.63113403 169.8886261 C313.87179853 170.03286727 313.87179853 170.03286727 316.35011292 171.74301147 C318.08495448 174.51223633 317.91512442 176.17055159 317.37623596 179.38095093 C315.72730358 182.13299385 313.67452537 184.47333176 311.56373596 186.88095093 C310.35820503 188.3071019 309.1537958 189.73420174 307.95045471 191.16220093 C307.34507874 191.87247437 306.73970276 192.5827478 306.11598206 193.31454468 C303.62284071 196.27580603 301.24654713 199.32117495 298.87623596 202.38095093 C293.28672001 209.54425404 287.54486298 216.58084087 281.80543518 223.62411499 C277.3502668 229.10060828 272.96270095 234.62783426 268.61891174 240.19296265 C263.37464649 246.90509793 258.00385309 253.50013587 252.57130432 260.06063843 C248.46574291 265.02931677 244.45128911 270.05898007 240.48951721 275.14266968 C236.46930299 280.29136508 232.34790606 285.35416387 228.21632385 290.41366577 C224.67501022 294.75870043 221.19441722 299.145392 217.75123596 303.56845093 C214.18905858 308.14285994 210.52414647 312.60400267 206.75123596 317.00595093 C203.13024232 321.25656995 199.55828521 325.53819484 196.12623596 329.94345093 C195.37857971 330.89348999 194.63092346 331.84352905 193.86061096 332.82235718 C192.14304452 335.1741997 192.14304452 335.1741997 192.65333557 337.31210327 C193.39283689 339.42846064 194.27875195 341.13689293 195.45826721 343.04110718 C195.88929749 343.74211548 196.32032776 344.44312378 196.76441956 345.16537476 C197.46945618 346.29302246 197.46945618 346.29302246 198.18873596 347.44345093 C198.67938538 348.2371106 199.17003479 349.03077026 199.67555237 349.84848022 C203.66275842 356.28172029 207.70661481 362.67957475 211.75904846 369.0718689 C215.43974678 374.88120636 219.07510732 380.71718606 222.68873596 386.56845093 C229.24360082 397.18071411 235.85219969 407.75888836 242.4690094 418.33261108 C246.23057074 424.34475328 249.98808913 430.35942301 253.74635315 436.37362671 C256.89507126 441.41206844 260.04478931 446.44987959 263.19654846 451.48641968 C269.64243631 461.78927321 276.07037588 472.10257739 282.45826721 482.4414978 C285.97667631 488.13202988 289.51577434 493.80923472 293.06739807 499.47909546 C294.96978292 502.51820389 296.86665898 505.56069671 298.76295471 508.60360718 C301.07645723 512.31373171 303.41253702 516.00771188 305.77076721 519.68954468 C306.78530934 521.29487491 307.79964537 522.90033542 308.81373596 524.50595093 C309.28053772 525.22162231 309.74733948 525.9372937 310.22828674 526.6746521 C312.73948997 530.68494413 314.13797023 533.4913424 313.37623596 538.38095093 C310.94191844 540.81526845 310.32966884 540.63577972 306.99334717 540.65510559 C306.07226669 540.66508072 305.15118622 540.67505585 304.20219421 540.68533325 C303.18865875 540.68599792 302.17512329 540.6866626 301.13087463 540.68734741 C300.06572128 540.69567093 299.00056793 540.70399445 297.90313721 540.71257019 C294.36678965 540.7367504 290.83062628 540.74545251 287.29420471 540.75204468 C284.84281354 540.76100548 282.39142295 540.77012722 279.94003296 540.77940369 C274.79432341 540.79591847 269.64867912 540.80359823 264.50294495 540.80648804 C257.90501012 540.81187178 251.30768755 540.84954181 244.70992565 540.8952322 C239.6441829 540.92495752 234.57858829 540.93221063 229.51276588 540.93321419 C227.08025117 540.9374261 224.64773639 540.94989899 222.21530724 540.97073174 C218.81300611 540.99754849 215.41213327 540.99284829 212.00978088 540.98031616 C211.00231812 540.99515045 209.99485535 541.00998474 208.9568634 541.02526855 C204.30472102 540.97640368 202.11529115 540.95294418 198.34591675 538.03562927 C196.09012431 534.99533799 193.96536443 531.92727663 192.00123596 528.69345093 C191.58478821 528.01774048 191.16834045 527.34203003 190.73927307 526.64584351 C184.67140357 516.70857636 178.93289279 506.57196393 173.14674377 496.46932983 C170.71357887 492.22504742 168.26597986 487.98923082 165.81373596 483.75595093 C165.37964417 483.00587769 164.94555237 482.25580444 164.49830627 481.48300171 C162.05810905 477.27030957 159.60790362 473.06361548 157.14967346 468.86141968 C150.81206912 458.025927 144.52545344 447.1640056 138.31373596 436.25595093 C131.84839789 424.90306242 125.29357947 413.60509052 118.57301331 402.40097046 C117.5857816 400.73463935 116.64107176 399.04319312 115.70826721 397.34579468 C114.4558201 395.06981357 114.4558201 395.06981357 111.37623596 394.38095093 C111.38147278 395.4722229 111.38670959 396.56349487 111.3921051 397.68783569 C111.41064326 401.86100393 111.42183994 406.03416884 111.4311676 410.20736694 C111.43609929 411.99025083 111.44284521 413.77313091 111.45167542 415.55599976 C111.50446234 426.51394497 111.29405484 437.41905799 110.76504517 448.36447144 C110.13876015 461.73023713 110.02127444 475.10862245 109.82398987 488.48617554 C109.72039813 495.36362173 109.59667805 502.24009803 109.44264221 509.11660767 C109.39853364 511.28486038 109.36331083 513.45331289 109.33717346 515.62185669 C109.29968102 518.65575711 109.23203644 521.6876102 109.15748596 524.72079468 C109.15365906 525.61416031 109.14983215 526.50752594 109.14588928 527.42796326 C109.0126902 531.61184882 108.71459114 534.5096472 106.07740784 537.85971069 C102.45122924 541.2443407 99.92920214 542.62647451 94.96716309 542.64837646 C94.09092789 542.65690643 93.21469269 542.6654364 92.31190491 542.67422485 C91.35852234 542.67331848 90.40513977 542.67241211 89.42286682 542.67147827 C87.90766197 542.68155411 87.90766197 542.68155411 86.36184692 542.6918335 C83.02154124 542.71083824 79.68143609 542.71473851 76.34107971 542.71688843 C74.02227698 542.72331299 71.70347508 542.73004109 69.38467407 542.73706055 C64.52499002 542.74903835 59.6653771 542.75274068 54.80567932 542.7515564 C48.56864243 542.75135281 42.33205916 542.77869431 36.09512997 542.81310081 C31.30741261 542.83529681 26.51980586 542.83939624 21.73204231 542.83833694 C19.43185927 542.84070241 17.13167361 542.84957872 14.83154106 542.86500168 C11.6207701 542.88452029 8.41099638 542.87887978 5.20021057 542.86679077 C4.24480377 542.87802979 3.28939697 542.8892688 2.30503845 542.90084839 C0.99491539 542.88826492 0.99491539 542.88826492 -0.3416748 542.87542725 C-1.10064591 542.87651678 -1.85961702 542.87760632 -2.64158726 542.87872887 C-4.62376404 542.38095093 -4.62376404 542.38095093 -6.22405487 540.90228385 C-8.26844852 537.21966383 -8.03531794 533.6455597 -8.00128746 529.54184628 C-8.00564778 528.63484977 -8.01000811 527.72785326 -8.01450056 526.79337201 C-8.0255125 523.73191581 -8.01500711 520.67090475 -8.00471497 517.60945129 C-8.00816917 515.4013666 -8.01293213 513.19328362 -8.0188967 510.98520428 C-8.03146879 504.90014496 -8.02520816 498.81522603 -8.01593804 492.73016608 C-8.00986745 486.84725757 -8.01783191 480.96437941 -8.02538014 475.08147508 C-8.04119496 462.30306327 -8.03980126 449.5246964 -8.0311434 436.7462803 C-8.02360426 425.56447666 -8.02162312 414.38268952 -8.02521133 403.20088387 C-8.02544049 402.45989867 -8.02566964 401.71891348 -8.02590574 400.95547419 C-8.02683972 397.94777635 -8.02779492 394.94007852 -8.02878504 391.9323807 C-8.03796693 363.70440558 -8.02963373 335.47645913 -8.01349434 307.24848843 C-7.99925551 282.15371123 -8.00053208 257.05897969 -8.01487732 231.96420288 C-8.03093056 203.78718348 -8.03731729 175.61018942 -8.02804053 147.43316609 C-8.02707834 144.43117814 -8.02613982 141.42919018 -8.02521133 138.42720222 C-8.0249741 137.68800499 -8.02473687 136.94880775 -8.02449245 136.1872106 C-8.02107577 125.01003306 -8.02507875 113.83287379 -8.03264999 102.65569878 C-8.04121271 89.95130098 -8.03911547 77.24695525 -8.02280776 64.54256397 C-8.01489924 58.05520473 -8.01187725 51.5679384 -8.02175522 45.08057976 C-8.03064928 39.14991164 -8.02585716 33.21942317 -8.00982256 27.28877152 C-8.00645222 25.13542173 -8.00821883 22.98205697 -8.01544993 20.82871669 C-8.0244829 17.91699564 -8.01530766 15.00590189 -8.00128746 12.09421444 C-8.00831096 11.24491406 -8.01533446 10.39561368 -8.02257079 9.52057692 C-7.9669977 3.80388917 -7.9669977 3.80388917 -6.23293189 1.66714436 C-4.07619601 -0.05671529 -2.74308347 0.00375922 0 0 Z " fill="#010000" transform="translate(812.6237640380859,202.61904907226563)"/>
<path d="M0 0 C0.82478851 -0.01007584 1.64957703 -0.02015167 2.49935913 -0.03053284 C5.23196914 -0.05907615 7.96402742 -0.06489371 10.69677734 -0.06811523 C12.59907254 -0.07775614 14.5013655 -0.0878486 16.40365601 -0.09837341 C20.39676055 -0.11635369 24.38967032 -0.12189292 28.3828125 -0.12011719 C33.48404341 -0.11981319 38.5840133 -0.16067203 43.68494606 -0.21243382 C47.61768244 -0.24590905 51.55011841 -0.25187122 55.48298264 -0.25028801 C57.36236266 -0.25381482 59.24175156 -0.26700965 61.12099075 -0.29028511 C78.8158884 -0.4888256 78.8158884 -0.4888256 85.33456421 4.65931702 C88.89546912 8.6804545 90.28240224 11.84044378 90.29082489 17.21923733 C90.29988153 18.38197971 90.30893817 19.54472209 90.31826925 20.74269909 C90.31294133 22.015837 90.3076134 23.2889749 90.30212402 24.60069275 C90.30701336 25.97017068 90.31320336 27.33964449 90.32058191 28.70911127 C90.33699918 32.47161532 90.33465993 36.23391007 90.32920694 39.99643743 C90.32653896 44.05446983 90.34106413 48.11244615 90.353302 52.17045593 C90.37436752 60.12009727 90.37889623 68.06966568 90.37711412 76.01933163 C90.37580713 82.47988756 90.37960737 88.94042072 90.38703918 95.40097237 C90.38913835 97.26103244 90.39123595 99.12109252 90.393332 100.98115259 C90.39437553 101.90691639 90.39541906 102.83268018 90.39649421 103.78649742 C90.41540087 121.29917818 90.41434498 138.81181705 90.40752488 156.32450379 C90.40194823 172.35071732 90.4227793 188.37677106 90.45588535 204.40294724 C90.48960542 220.85386882 90.50479285 237.30471381 90.50016832 253.75567061 C90.49792204 262.99356968 90.50319008 272.23132102 90.52806091 281.4691906 C90.54905224 289.33310668 90.55268761 297.19679402 90.53376132 305.06071942 C90.52459025 309.07370374 90.52350191 313.08626133 90.54411697 317.09921265 C90.56277958 320.7726858 90.55837767 324.44538132 90.53557116 328.11882443 C90.52938419 330.07761457 90.54781534 332.03643464 90.56710768 333.99513954 C90.47082805 343.49926943 90.47082805 343.49926943 87.47990322 347.18166924 C82.5025661 351.54352862 78.86129322 351.73034479 72.33129883 351.71044922 C71.46746582 351.71556015 70.60363281 351.72067108 69.71362305 351.72593689 C66.86028098 351.73982947 64.00718045 351.73887675 61.15380859 351.73657227 C59.17130951 351.7404586 57.18881126 351.74479314 55.20631409 351.7495575 C51.05279845 351.75701841 46.89936783 351.75672877 42.74584961 351.75146484 C37.41687755 351.74566208 32.08825213 351.76262133 26.75933743 351.78580952 C22.66646787 351.80052052 18.57368239 351.8014223 14.48079109 351.79829979 C12.51554743 351.79881406 10.55029918 351.80407145 8.5850811 351.81411171 C5.84140135 351.82641153 3.09840467 351.81972412 0.35473633 351.80810547 C-0.46040939 351.81574921 -1.27555511 351.82339294 -2.11540222 351.83126831 C-7.58726148 351.77990164 -7.58726148 351.77990164 -9.80072939 350.27169943 C-11.61974512 347.68602224 -11.46834146 345.83557886 -11.46980858 342.68703461 C-11.47763182 341.48114008 -11.48545506 340.27524556 -11.49351537 339.03280878 C-11.48702864 337.68776473 -11.48025865 336.34272202 -11.47323608 334.99768066 C-11.47669074 333.57416979 -11.48145401 332.15066159 -11.48741782 330.72715902 C-11.49998403 326.80611361 -11.49373206 322.88528621 -11.48445916 318.96423984 C-11.47769191 314.73923153 -11.48813832 310.51426162 -11.49639893 306.28926086 C-11.50976337 298.00880103 -11.50684648 289.72842261 -11.498161 281.44795954 C-11.49139551 274.72036038 -11.49046281 267.99278408 -11.49373245 261.2651825 C-11.49419215 260.30895551 -11.49465185 259.35272852 -11.49512548 258.36752495 C-11.49608462 256.42518174 -11.49705726 254.48283853 -11.49804325 252.54049534 C-11.50660509 234.31209235 -11.49675058 216.08373457 -11.48064215 197.85533899 C-11.46723826 182.20260895 -11.46956613 166.54994564 -11.48339844 150.8972168 C-11.49944025 132.73560502 -11.50578104 114.5740329 -11.49656165 96.41241503 C-11.49560596 94.47707654 -11.49466285 92.54173804 -11.49373245 90.60639954 C-11.49326963 89.65408859 -11.4928068 88.70177765 -11.49232995 87.7206088 C-11.48973586 80.99835581 -11.49412006 74.27612789 -11.50117111 67.55387878 C-11.5095708 59.36561297 -11.50733834 51.17743347 -11.49132888 42.98917758 C-11.48342545 38.80858665 -11.48038964 34.6281398 -11.49027634 30.44754982 C-11.49918113 26.62443757 -11.49436063 22.80160368 -11.47834368 18.97851688 C-11.47497788 17.59162034 -11.47673003 16.20470054 -11.48397104 14.81781882 C-11.49302681 12.94007759 -11.48199031 11.06227098 -11.46980858 9.18454742 C-11.46932152 8.13928469 -11.46883446 7.09402196 -11.46833265 6.0170846 C-11.09228516 3.43579102 -11.09228516 3.43579102 -9.79150832 1.60156488 C-6.85645142 -0.41206859 -3.43896817 -0.00600006 0 0 Z " fill="#010100" transform="translate(315.09228515625,392.564208984375)"/>
<path d="M0 0 C16.05721209 12.5020229 23.94347056 28.48067823 28 48 C28.176521 48.74830078 28.35304199 49.49660156 28.53491211 50.26757812 C29.45671919 55.68325518 29.18590532 61.2255217 29.18530273 66.70727539 C29.18746252 68.89945697 29.20556492 71.09111221 29.22460938 73.28320312 C29.2740166 85.20594325 28.61584639 97.12896809 24.5 108.4375 C24.24573242 109.14068359 23.99146484 109.84386719 23.72949219 110.56835938 C17.31922756 127.20967499 5.34053533 140.58344707 -11 148 C-22.93139192 152.08370418 -38.66640625 153.60352559 -50.625 148.875 C-52.44488571 147.97140263 -54.2398062 147.01498277 -56 146 C-56.81855469 145.53078125 -57.63710938 145.0615625 -58.48046875 144.578125 C-75.55375934 133.93949167 -83.7215705 115.9574024 -88.421875 97.046875 C-90.03268288 88.55748212 -90.24591945 80.09028887 -90.29516602 71.47314453 C-90.30663412 70.08501958 -90.32700359 68.69693691 -90.35668945 67.30908203 C-90.57914638 56.84739257 -89.18981744 47.99211808 -86 38 C-85.67854004 36.97495361 -85.35708008 35.94990723 -85.02587891 34.89379883 C-79.68739093 18.45703896 -68.40700407 4.02904905 -53.125 -4.25 C-35.5865076 -12.24396903 -15.99600041 -10.76563664 0 0 Z " fill="#FDE3A5" transform="translate(639,496)"/>
<path d="M0 0 C10.81763342 10.18974425 16.42476141 22.65680322 17.01586914 37.54663086 C17.18117639 51.55902631 14.02985948 63.53226631 5.54296875 74.90625 C4.77984375 75.97875 4.01671875 77.05125 3.23046875 78.15625 C0.08108383 81.37887643 -3.32014695 83.78984835 -7.0546875 86.29296875 C-9.4218347 87.83265835 -9.4218347 87.83265835 -11.375 89.44921875 C-14.01855338 91.29921014 -16.69876814 92.36929055 -19.70703125 93.53125 C-20.7846875 93.95664062 -21.86234375 94.38203125 -22.97265625 94.8203125 C-41.02233858 100.44566193 -63.69758508 98.12316096 -80.45703125 89.65625 C-90.02619546 84.03645406 -96.59467897 77.27724204 -102.45703125 67.90625 C-102.94300781 67.15214844 -103.42898438 66.39804687 -103.9296875 65.62109375 C-110.73415428 54.37289357 -111.13289776 39.92355446 -108.76953125 27.20703125 C-104.31363636 11.51856799 -94.2892546 -0.6258238 -80.45703125 -9.09375 C-77.18723932 -10.660714 -73.89809868 -11.95742736 -70.45703125 -13.09375 C-69.46703125 -13.42375 -68.47703125 -13.75375 -67.45703125 -14.09375 C-42.6894692 -17.08859201 -19.77809997 -16.853834 0 0 Z " fill="#010101" transform="translate(400.45703125,259.09375)"/>
<path d="M0 0 C0.77730469 -0.01224609 1.55460937 -0.02449219 2.35546875 -0.03710938 C15.81958606 -0.07105253 28.58167913 6.93311553 38.5859375 15.609375 C48.42767472 25.60252356 54.56755744 37.19382344 54.68115234 51.38427734 C54.66262207 52.43309082 54.6440918 53.4819043 54.625 54.5625 C54.61291504 55.66158691 54.60083008 56.76067383 54.58837891 57.89306641 C54.39096806 65.96537549 53.56141169 72.7933634 50.125 80.1875 C49.67769531 81.15558594 49.23039062 82.12367188 48.76953125 83.12109375 C41.76800529 96.95520804 30.7543666 106.01742612 16.0546875 110.87109375 C1.71974466 114.70608768 -13.65110916 112.36626915 -26.50390625 105.30078125 C-40.0934785 96.78170988 -47.77554672 82.63421517 -51.47363281 67.35546875 C-52.15870663 63.65507001 -52.17296703 60.00342019 -52.125 56.25 C-52.11533203 55.45223145 -52.10566406 54.65446289 -52.09570312 53.83251953 C-51.81095304 39.93386791 -46.53460852 25.9492643 -36.6328125 15.84765625 C-35.76269531 15.02587891 -35.76269531 15.02587891 -34.875 14.1875 C-34.29492188 13.58808594 -33.71484375 12.98867188 -33.1171875 12.37109375 C-23.84118303 3.38617729 -12.56528227 0.01031632 0 0 Z " fill="#020101" transform="translate(1196.875,639.8125)"/>
<path d="M0 0 C0.33 0 0.66 0 1 0 C1 32.67 1 65.34 1 99 C0.01 99 -0.98 99 -2 99 C-2.06329662 84.05596966 -1.90441734 69.12212335 -1.62768555 54.18066406 C-1.56270387 50.63612041 -1.50287757 47.09151409 -1.44335938 43.546875 C-1.18677073 29.01844032 -0.71891257 14.51300623 0 0 Z " fill="#B29E71" transform="translate(923,637)"/>
<path d="M0 0 C0.33 0 0.66 0 1 0 C1.08564209 0.6297876 1.17128418 1.2595752 1.25952148 1.90844727 C1.65194051 4.79316428 2.04471753 7.67783245 2.4375 10.5625 C2.57220703 11.55314453 2.70691406 12.54378906 2.84570312 13.56445312 C3.54688936 18.71218618 4.25720114 23.85810106 5 29 C2 27 2 27 1.3125 25.1484375 C0.98917297 22.92556417 0.9370017 20.86931458 1 18.625 C1.04791999 14.9531305 0.61682593 11.62385233 0 8 C-0.0827826 5.32660892 -0.04613285 2.67570525 0 0 Z " fill="#C8B582" transform="translate(437,592)"/>
<path d="M0 0 C1.31967773 0.02618408 2.63935547 0.05236816 3.99902344 0.0793457 C4.70363708 0.08642044 5.40825073 0.09349518 6.13421631 0.1007843 C8.37670735 0.12869339 10.61666715 0.19141408 12.85839844 0.25512695 C14.38179978 0.28021484 15.90524041 0.30302717 17.42871094 0.32348633 C21.15609092 0.37850482 24.8819975 0.46474891 28.60839844 0.56762695 C28.60839844 0.89762695 28.60839844 1.22762695 28.60839844 1.56762695 C27.27663574 1.58164551 27.27663574 1.58164551 25.91796875 1.59594727 C22.61493925 1.64003376 19.31319837 1.70167441 16.01074219 1.77514648 C14.58312907 1.80332306 13.1553609 1.82455422 11.72753906 1.83862305 C9.67139512 1.86010087 7.61710841 1.9067667 5.56152344 1.95825195 C4.32563477 1.97919922 3.08974609 2.00014648 1.81640625 2.02172852 C-1.89359261 2.65304948 -3.08151067 3.67244754 -5.39160156 6.56762695 C-6.05160156 6.23762695 -6.71160156 5.90762695 -7.39160156 5.56762695 C-5.18297362 2.0215521 -4.2103199 0.70464971 0 0 Z " fill="#201C13" transform="translate(1026.3916015625,372.432373046875)"/>
<path d="M0 0 C11.22 0 22.44 0 34 0 C29.26523662 4.73476338 20.56555015 3.22175358 14.3125 3.25 C13.15943359 3.270625 12.00636719 3.29125 10.81835938 3.3125 C9.1699707 3.32023437 9.1699707 3.32023437 7.48828125 3.328125 C6.48321533 3.3374707 5.47814941 3.34681641 4.44262695 3.35644531 C3.23352661 3.18000488 3.23352661 3.18000488 2 3 C1.34 2.01 0.68 1.02 0 0 Z " fill="#AC966D" transform="translate(340,355)"/>
<path d="M0 0 C0.66 0.33 1.32 0.66 2 1 C-0.98334854 6.01202555 -4.43951988 9.38748484 -9 13 C-9.66 12.67 -10.32 12.34 -11 12 C-3.70159453 3.55353075 -3.70159453 3.55353075 0 0 Z " fill="#E0CC93" transform="translate(576,498)"/>
<path d="M0 0 C8 9.42857143 8 9.42857143 8 14 C4.06654848 12.68884949 3.67625924 11.15787222 1.75 7.5625 C0.93789063 6.07943359 0.93789063 6.07943359 0.109375 4.56640625 C-0.25671875 3.71949219 -0.6228125 2.87257813 -1 2 C-0.67 1.34 -0.34 0.68 0 0 Z " fill="#DDCB92" transform="translate(960,655)"/>
<path d="M0 0 C4.95 0.99 4.95 0.99 10 2 C10 2.66 10 3.32 10 4 C11.65 4 13.3 4 15 4 C15 4.33 15 4.66 15 5 C9.01006953 5.3152595 5.36439644 4.68219822 0 2 C0 1.34 0 0.68 0 0 Z " fill="#D6C28D" transform="translate(588,642)"/>
<path d="M0 0 C0.66 0.33 1.32 0.66 2 1 C-1.96 4.96 -5.92 8.92 -10 13 C-10.66 12.67 -11.32 12.34 -12 12 C-8.27653164 7.57905197 -4.70478962 3.42166518 0 0 Z " fill="#252019" transform="translate(314,254)"/>
<path d="M0 0 C-2.96213574 2.30465234 -6.02152757 4.27590448 -9.25 6.1875 C-10.14203125 6.71730469 -11.0340625 7.24710938 -11.953125 7.79296875 C-12.62859375 8.19128906 -13.3040625 8.58960938 -14 9 C-14 8.01 -14 7.02 -14 6 C-12.20703125 4.39453125 -12.20703125 4.39453125 -9.8125 2.8125 C-8.64654297 2.01779297 -8.64654297 2.01779297 -7.45703125 1.20703125 C-4.73548811 -0.12994304 -2.99143707 -0.23910243 0 0 Z " fill="#EFDFA1" transform="translate(326,247)"/>
<path d="M0 0 C0.8353125 0.37125 0.8353125 0.37125 1.6875 0.75 C-1.48570782 4.28586014 -3.47993695 6.33578031 -8.3125 6.75 C-6.99035643 2.78356928 -4.51439587 -0.4880428 0 0 Z " fill="#EEDC9F" transform="translate(1234.3125,739.25)"/>
<path d="M0 0 C4.96684768 0.67729741 8.41385787 1.41385787 12 5 C12 5.66 12 6.32 12 7 C7.76570244 5.68938409 3.92592596 4.05643741 0 2 C0 1.34 0 0.68 0 0 Z " fill="#DECE95" transform="translate(1213,641)"/>
<path d="M0 0 C0.185625 0.8353125 0.185625 0.8353125 0.375 1.6875 C1.45285397 5.67555968 3.1020729 9.33971203 5 13 C4.01 13.495 4.01 13.495 3 14 C2.13058506 12.76055724 1.27994543 11.50792941 0.4375 10.25 C-0.03816406 9.55390625 -0.51382813 8.8578125 -1.00390625 8.140625 C-2 6 -2 6 -1.71484375 3.859375 C-1 2 -1 2 0 0 Z " fill="#E9D79C" transform="translate(1006,535)"/>
<path d="M0 0 C0.33 0.99 0.66 1.98 1 3 C-0.43359375 5.48046875 -0.43359375 5.48046875 -2.4375 8.1875 C-3.09621094 9.08855469 -3.75492188 9.98960937 -4.43359375 10.91796875 C-5.20896484 11.94857422 -5.20896484 11.94857422 -6 13 C-6.33 12.01 -6.66 11.02 -7 10 C-5.56640625 7.51953125 -5.56640625 7.51953125 -3.5625 4.8125 C-2.90378906 3.91144531 -2.24507812 3.01039063 -1.56640625 2.08203125 C-1.04949219 1.39496094 -0.53257812 0.70789063 0 0 Z " fill="#EBDB9D" transform="translate(943,476)"/>
<path d="M0 0 C0.66 0.33 1.32 0.66 2 1 C-0.27941234 4.41911851 -0.40474917 4.10118729 -4 5 C-4.99 6.485 -4.99 6.485 -6 8 C-7.32 7.34 -8.64 6.68 -10 6 C-8.3811004 4.96951963 -6.75467511 3.95085322 -5.125 2.9375 C-4.22007812 2.36902344 -3.31515625 1.80054688 -2.3828125 1.21484375 C-1.20332031 0.61349609 -1.20332031 0.61349609 0 0 Z " fill="#D5C38C" transform="translate(654,728)"/>
<path d="M0 0 C2.96659857 3.55991828 5.381348 7.65222543 7 12 C6.67 12.66 6.34 13.32 6 14 C5.34 14 4.68 14 4 14 C3.32471777 12.42032193 2.66010306 10.83608097 2 9.25 C1.62875 8.36828125 1.2575 7.4865625 0.875 6.578125 C0 4 0 4 0 0 Z " fill="#DDCA92" transform="translate(1148,716)"/>
<path d="M0 0 C0.33 0.66 0.66 1.32 1 2 C-0.37393005 5.66381347 -1.1447677 7.56243929 -4.6875 9.375 C-5.450625 9.58125 -6.21375 9.7875 -7 10 C-4.93992341 6.39486597 -2.6486859 3.19668988 0 0 Z " fill="#D8C58E" transform="translate(1064,463)"/>
<path d="M0 0 C0.33 0 0.66 0 1 0 C1.25 2.25 1.25 2.25 1 5 C-1 7.3125 -1 7.3125 -3 9 C-3.99 8.67 -4.98 8.34 -6 8 C-5.02471263 6.66382648 -4.04466681 5.3311249 -3.0625 4 C-2.24458984 2.88625 -2.24458984 2.88625 -1.41015625 1.75 C-0.94480469 1.1725 -0.47945312 0.595 0 0 Z " fill="#E4D197" transform="translate(1100,418)"/>
<path d="M0 0 C4.38249366 1.33909529 6.57949251 3.08994944 9 7 C8.6015625 9.1640625 8.6015625 9.1640625 8 11 C7.0406581 9.72992786 6.08256706 8.45891081 5.125 7.1875 C4.59132813 6.47980469 4.05765625 5.77210938 3.5078125 5.04296875 C2.29185219 3.39543703 1.13583859 1.70375789 0 0 Z " fill="#E6D399" transform="translate(401,260)"/>
<path d="M0 0 C-1.5830577 4.2742558 -4.50568404 6.26531794 -8 9 C-8 6 -8 6 -6.7578125 4.39453125 C-5.94957031 3.61142578 -5.94957031 3.61142578 -5.125 2.8125 C-4.59132813 2.28269531 -4.05765625 1.75289062 -3.5078125 1.20703125 C-2 0 -2 0 0 0 Z " fill="#E7D69B" transform="translate(1165,650)"/>
<path d="M0 0 C3.78717347 1.48781815 5.77407001 3.61988409 8 7 C7.67 7.99 7.34 8.98 7 10 C5.82739389 8.71372289 4.6620717 7.42080217 3.5 6.125 C2.8503125 5.40570312 2.200625 4.68640625 1.53125 3.9453125 C0 2 0 2 0 0 Z " fill="#ECDA9D" transform="translate(564,623)"/>
<path d="M0 0 C2.16099373 2.16099373 2.71563716 3.5210418 3.6875 6.375 C3.95949219 7.14585937 4.23148438 7.91671875 4.51171875 8.7109375 C5.04278009 11.20055308 4.81115526 12.61553018 4 15 C3.67 13.02 3.34 11.04 3 9 C2.34 9 1.68 9 1 9 C0.29925156 5.846632 0 3.27275026 0 0 Z " fill="#A8986C" transform="translate(660,523)"/>
<path d="M0 0 C0.33 0.66 0.66 1.32 1 2 C-0.59617578 5.83082186 -1.49984971 7.66656647 -5 10 C-5.33 9.01 -5.66 8.02 -6 7 C-4.78515625 5.17578125 -4.78515625 5.17578125 -3.0625 3.3125 C-2.49660156 2.68988281 -1.93070312 2.06726563 -1.34765625 1.42578125 C-0.90292969 0.95527344 -0.45820313 0.48476563 0 0 Z " fill="#DBC891" transform="translate(408,330)"/>
<path d="M0 0 C0.66 0 1.32 0 2 0 C5.22265625 5.2734375 5.22265625 5.2734375 6 7 C5.67 7.66 5.34 8.32 5 9 C1.7457985 6.16569547 0.4793247 4.31392226 0 0 Z " fill="#D6C38D" transform="translate(943,627)"/>
<path d="M0 0 C1.875 0.625 1.875 0.625 4 2 C5.25 5.125 5.25 5.125 6 8 C5.01 8.495 5.01 8.495 4 9 C0 2.25 0 2.25 0 0 Z " fill="#E3D196" transform="translate(458,670)"/>
<path d="M0 0 C3 1 3 1 4.75 3.4375 C5.36875 4.7059375 5.36875 4.7059375 6 6 C5.67 6.66 5.34 7.32 5 8 C4.34 8 3.68 8 3 8 C3 6.68 3 5.36 3 4 C2.01 4 1.02 4 0 4 C0 2.68 0 1.36 0 0 Z " fill="#E3D298" transform="translate(925,597)"/>
<path d="M0 0 C1.79240663 0.11389875 3.58394835 0.24147687 5.375 0.375 C6.87160156 0.47941406 6.87160156 0.47941406 8.3984375 0.5859375 C11 1 11 1 13 3 C9.57056481 4.18771723 7.62215325 3.80226223 4.25 2.5625 C3.45078125 2.27503906 2.6515625 1.98757812 1.828125 1.69140625 C1.22484375 1.46324219 0.6215625 1.23507813 0 1 C0 0.67 0 0.34 0 0 Z " fill="#B0A075" transform="translate(373,245)"/>
<path d="M0 0 C0.66 0 1.32 0 2 0 C6 6.75 6 6.75 6 9 C5.01 8.67 4.02 8.34 3 8 C2.6278958 6.67696283 2.29369827 5.34262065 2 4 C1.34 3.67 0.68 3.34 0 3 C0 2.01 0 1.02 0 0 Z " fill="#D8C48D" transform="translate(936,615)"/>
<path d="M0 0 C0.96661363 3.12180401 0.98988909 5.52083795 0.5625 8.75 C0.40974609 9.94882812 0.40974609 9.94882812 0.25390625 11.171875 C0.12822266 12.07679688 0.12822266 12.07679688 0 13 C-0.33 13 -0.66 13 -1 13 C-1.33 9.04 -1.66 5.08 -2 1 C-1.34 0.67 -0.68 0.34 0 0 Z " fill="#D4BF89" transform="translate(666,583)"/>
<path d="M0 0 C2.64752004 2.57784846 4.94432065 4.91648098 7 8 C4.24542282 7.62005832 3.17979426 7.1926367 1.25 5.125 C0 3 0 3 0 0 Z " fill="#E2CF96" transform="translate(303,334)"/>
<path d="M0 0 C0.99 0.33 1.98 0.66 3 1 C0.14693203 3.32472205 -2.54074837 4.7508258 -6 6 C-6 5.34 -6 4.68 -6 4 C-3.1875 1.8125 -3.1875 1.8125 0 0 Z " fill="#ECDB9E" transform="translate(521,396)"/>
<path d="M0 0 C0.66 0.33 1.32 0.66 2 1 C0.68 2.65 -0.64 4.3 -2 6 C-3.32 5.67 -4.64 5.34 -6 5 C-4.02 3.35 -2.04 1.7 0 0 Z " fill="#E1D096" transform="translate(662,722)"/>
<path d="M0 0 C3.87132028 0.57352893 6.08172796 2.48704352 9 5 C6.03 4.505 6.03 4.505 3 4 C3 3.34 3 2.68 3 2 C2.01 1.67 1.02 1.34 0 1 C0 0.67 0 0.34 0 0 Z " fill="#EFDD9F" transform="translate(503,724)"/>
<path d="M0 0 C0.66 0 1.32 0 2 0 C1.67 2.64 1.34 5.28 1 8 C0.34 8 -0.32 8 -1 8 C-0.67 5.36 -0.34 2.72 0 0 Z " fill="#DED298" transform="translate(1250,707)"/>
<path d="M0 0 C0.33 0.99 0.66 1.98 1 3 C-0.65 4.65 -2.3 6.3 -4 8 C-4 4.09161134 -2.49432124 2.88405893 0 0 Z " fill="#ECDB9D" transform="translate(971,439)"/>
<path d="M0 0 C-2.42115191 2.42115191 -3.64160525 2.60948898 -7 3 C-9.8125 2.5625 -9.8125 2.5625 -12 2 C-8.09971775 -0.60018816 -4.52565431 -0.15085514 0 0 Z " fill="#D0BB88" transform="translate(374,355)"/>
</svg>
